<svg width="24" height="24" viewBox="0 0 24 24" fill="none" xmlns="http://www.w3.org/2000/svg">
<path fill-rule="evenodd" clip-rule="evenodd" d="M6.11196 6.03008C4.23744 7.9046 4.23744 10.9438 6.11196 12.8183C7.98647 14.6928 11.0257 14.6928 12.9002 12.8183C14.7747 10.9438 14.7747 7.9046 12.9002 6.03008C11.0257 4.15557 7.98647 4.15557 6.11196 6.03008ZM4.4149 14.5154C1.60312 11.7036 1.60312 7.1448 4.4149 4.33303C7.22667 1.52125 11.7855 1.52125 14.5972 4.33303C17.1973 6.93309 17.3931 11.027 15.1846 13.852L16.3005 14.5216L20.4337 18.6548L18.7367 20.3519L14.6035 16.2186L13.9339 15.1027C11.1089 17.3112 7.01496 17.1154 4.4149 14.5154Z" fill="#651FFF"/>
</svg>
